<svg width="32" height="32" viewBox="0 0 32 32" fill="none" xmlns="http://www.w3.org/2000/svg">
    <circle cx="16" cy="16" r="16" fill="#304839" />
    <path
        d="M12.8114 15.5282L11.3743 19.0986C11.1497 19.6525 11.0374 20.1091 11.0374 20.4683C11.0374 20.9624 11.262 21.3141 11.7111 21.5237H8.5C8.6497 21.5237 8.86677 21.374 9.1512 21.0746C9.43563 20.7752 9.76497 20.1839 10.1392 19.3007L16 5.35606L21.8159 19.368C22.1452 20.1764 22.4596 20.7303 22.759 21.0297C23.0734 21.3291 23.3204 21.4938 23.5 21.5237H19.7725C20.1467 21.3441 20.3338 21.0671 20.3338 20.6929C20.3338 20.3785 20.2141 19.9294 19.9745 19.3456L18.4027 15.5282H12.8114ZM18.0434 14.6076L15.5958 8.61205L13.1931 14.6076H18.0434Z"
        fill="#ECE5DC" />
    <path fillRule="evenodd" clipRule="evenodd" d="M23.4746 24.6439H8.5V24.0826H23.4746V24.6439Z" fill="#A3664F" />
</svg>